<svg width="69" height="58" fill="none" xmlns="http://www.w3.org/2000/svg">
  <mask id="a" maskUnits="userSpaceOnUse" x="0" y="15" width="69" height="43" fill="#000">
    <path fill="#fff" d="M0 15h69v43H0z"/>
    <path fill-rule="evenodd" clip-rule="evenodd" d="M12.13 20.32L17 26h45a3 3 0 110 6H44.16l-2.54 3-.54.64-12.9 16.1A6 6 0 0123.5 54H21l2.5-3.91.06-.1 9.2-14.35L35.45 32H17l-4.87 5.68L11 39H7l1.2-2.4.58-1.15L9 35l3-6-3-6-.22-.45-.58-1.15L7 19h4l1.13 1.32z"/>
  </mask>
  <path d="M17 26l-3.04 2.6 1.2 1.4H17v-4zm-4.87-5.68l3.04-2.6-3.04 2.6zM44.16 32v-4H42.3l-1.2 1.42L44.16 32zm-2.54 3l3.06 2.58L41.62 35zm-.54.64l-3.06-2.58-.03.04-.03.04 3.12 2.5zm-12.9 16.1l3.13 2.5-3.12-2.5zm-2.04 1.65l1.76 3.6-1.76-3.6zM21 54l-3.37-2.16L13.7 58H21v-4zm2.5-3.91l3.37 2.16-3.37-2.16zm.06-.1l-3.37-2.15L23.56 50zm9.2-14.35l-3.22-2.37-.08.1-.07.12 3.37 2.15zM35.45 32l3.21 2.38L43.37 28h-7.92v4zM17 32v-4h-1.84l-1.2 1.4L17 32zm-4.87 5.68l-3.03-2.6 3.03 2.6zM11 39v4h1.84l1.2-1.4L11 39zm-4 0l-3.58-1.79L.52 43H7v-4zm1.2-2.4l-3.58-1.79L8.2 36.6zm.58-1.15l3.57 1.79-3.57-1.8zM12 29l3.58 1.79.9-1.79-.9-1.79L12 29zM7 19v-4H.53l2.9 5.79L7 19zm4 0l3.04-2.6-1.2-1.4H11v4zm9.04 4.4l-4.87-5.68-6.07 5.2 4.86 5.68 6.08-5.2zM62 22H17v8h45v-8zm7 7a7 7 0 00-7-7v8a1 1 0 01-1-1h8zm-7 7a7 7 0 007-7h-8a1 1 0 011-1v8zm-17.84 0H62v-8H44.16v8zm-3.06-6.58l-2.53 3 6.11 5.16 2.53-3-6.11-5.16zm-2.53 3l-.55.64 6.12 5.16.54-.64-6.11-5.16zm-.61.72l-12.9 16.11 6.25 5 12.9-16.1-6.25-5zm-12.9 16.11a2 2 0 01-.68.55l3.52 7.18a10 10 0 003.41-2.73l-6.24-5zm-.68.55a2 2 0 01-.88.2v8a10 10 0 004.4-1.02l-3.52-7.18zm-.88.2H21v8h2.5v-8zm.87 6.16l2.5-3.91-6.73-4.32-2.5 3.91 6.73 4.32zm2.5-3.91l.06-.1-6.74-4.3-.05.08 6.73 4.32zm.06-.1l9.2-14.35-6.74-4.31-9.2 14.35 6.74 4.32zm9.04-14.13l2.7-3.64-6.44-4.76-2.7 3.65 6.44 4.75zM17 36h18.45v-8H17v8zm-1.83 4.28l4.87-5.68-6.08-5.2-4.86 5.67 6.07 5.21zm-1.13 1.32l1.13-1.32-6.07-5.2-1.14 1.32 6.08 5.2zM7 43h4v-8H7v8zm-2.38-8.19l-1.2 2.4 7.16 3.58 1.2-2.4-7.16-3.58zm.58-1.15l-.58 1.15 7.16 3.58.57-1.15-7.15-3.58zm.22-.45l-.22.45 7.15 3.58.23-.45-7.16-3.58zm3-6l-3 6 7.16 3.58 3-6-7.16-3.58zm-3-2.42l3 6 7.16-3.58-3-6-7.16 3.58zm-.22-.45l.22.45 7.16-3.58-.23-.45-7.15 3.58zm-.58-1.15l.58 1.15 7.15-3.58-.57-1.15-7.16 3.58zm-1.2-2.4l1.2 2.4 7.16-3.58-1.2-2.4-7.16 3.58zM11 15H7v8h4v-8zm4.17 2.72l-1.13-1.32-6.08 5.2 1.14 1.33 6.07-5.21z" fill="#949494" mask="url(#a)"/>
  <path fill-rule="evenodd" clip-rule="evenodd" d="M21 0h-7.37l4.02 6.18 8.04 12.37h4.78L23.6 8l-.09-.14L21 4h2.51a6 6 0 014.66 2.22L37.75 18l.45.55h5.15L31.27 3.7A10 10 0 0023.51 0H21zm25.6 22.55H28.3l1.05 1.63L30.54 26H49.4l-2.8-3.45z" fill="#949494"/>
</svg>
