<svg width="48" height="48" viewBox="0 0 48 48" fill="none" xmlns="http://www.w3.org/2000/svg">
<path fill-rule="evenodd" clip-rule="evenodd" d="M18 6H15V9H12H9V12V36V39H12H25.0104C26.6956 42.5474 30.3114 45 34.5 45C40.299 45 45 40.299 45 34.5C45 30.3114 42.5474 26.6956 39 25.0104V12V9H36H33V6H30V9H18V6ZM36 24.1063V12H12V36H24.1063C24.0363 35.5101 24 35.0093 24 34.5C24 28.701 28.701 24 34.5 24C35.0093 24 35.5101 24.0363 36 24.1063ZM33 18H15V21H33V18ZM42 34.5C42 38.6421 38.6421 42 34.5 42C30.3579 42 27 38.6421 27 34.5C27 30.3579 30.3579 27 34.5 27C38.6421 27 42 30.3579 42 34.5ZM32.3787 34.5L29.9393 32.0607L32.0607 29.9393L34.5 32.3787L36.9393 29.9393L39.0607 32.0607L36.6213 34.5L39.0607 36.9393L36.9393 39.0607L34.5 36.6213L32.0607 39.0607L29.9393 36.9393L32.3787 34.5Z" fill="#949494"/>
</svg>
