<?xml version="1.0" encoding="utf-8"?>
<!-- Generator: Adobe Illustrator 25.4.1, SVG Export Plug-In . SVG Version: 6.00 Build 0)  -->
<svg version="1.1" id="Layer_1" xmlns="http://www.w3.org/2000/svg" xmlns:xlink="http://www.w3.org/1999/xlink" x="0px" y="0px"
	 viewBox="0 0 62 50" style="enable-background:new 0 0 62 50;" xml:space="preserve">
<style type="text/css">
	.st0{fill-rule:evenodd;clip-rule:evenodd;fill:#FFFFFF;}
	.st1{fill:#FFFFFF;}
</style>
<path class="st0" d="M40.6,10.2c0,5.6-4.6,10.2-10.2,10.2s-10.2-4.6-10.2-10.2S24.8,0,30.4,0S40.6,4.6,40.6,10.2z M30.4,16.4
	c3.4,0,6.2-2.8,6.2-6.2c0-3.4-2.8-6.2-6.2-6.2s-6.2,2.8-6.2,6.2C24.2,13.6,27,16.4,30.4,16.4z"/>
<path class="st1" d="M20,27c-3.3,0-6,2.7-6,6v9h-4v-9c0-5.5,4.5-10,10-10h21c5.5,0,10,4.5,10,10v9h-4v-9c0-3.3-2.7-6-6-6H20z M62,46
	H0v4h62V46z"/>
</svg>
