<svg viewBox="0 0 62 50" width="62" height="50" fill="none"
  xmlns="http://www.w3.org/2000/svg">
  <path fill-rule="evenodd" clip-rule="evenodd" d="M40.6002 10.2c0 5.6333-4.5667 10.2-10.2 10.2-5.6333 0-10.2-4.5667-10.2-10.2 0-5.6333 4.5667-10.2 10.2-10.2 5.6333 0 10.2 4.5667 10.2 10.2zm-10.2 6.2c3.4242 0 6.2-2.7758 6.2-6.2 0-3.42416-2.7758-6.2-6.2-6.2-3.4242 0-6.2 2.77584-6.2 6.2 0 3.4242 2.7758 6.2 6.2 6.2z" fill="#949494"/>
  <path d="M20 27c-3.3137 0-6 2.6863-6 6v9h-4v-9c0-5.5228 4.4772-10 10-10h21c5.5228 0 10 4.4772 10 10v9h-4v-9c0-3.3137-2.6863-6-6-6H20zM62 46H0v4h62v-4z" fill="#949494"/>
</svg>