<svg xmlns="http://www.w3.org/2000/svg" height="46" width="35"><path fill="#c31a13" d="M0 16.3h34v-1a16.6 16.6 0 00-2-7.6l-.6-1H2.6a2 2 0 00-.6 1 16.5 16.5 0 00-2 7.6z"/><path fill="#fcbf2d" d="M1.5 37.3l.5 1c2.1 4 6.5 7.7 15 7.7s12.8-3.6 15-7.7l.4-1z"/><path fill="#a2050d" d="M2 7.7h30C29.8 3.7 25.4 0 17 0S4.1 3.6 2 7.7z"/><path fill="#f86920" d="M0 23v8.7h34V22H0z"/><path d="M0 15.3h34V23H0z" fill="#e22f19"/><path fill="#fa9326" d="M2 38.3h30a16.6 16.6 0 002-7.6H0a16.6 16.6 0 002 7.6z"/></svg>